<svg id="SvgjsSvg1001" width="288" height="288" xmlns="http://www.w3.org/2000/svg" version="1.1" xmlns:xlink="http://www.w3.org/1999/xlink" xmlns:svgjs="http://svgjs.com/svgjs"><defs id="SvgjsDefs1002"></defs><g id="SvgjsG1008"><svg xmlns="http://www.w3.org/2000/svg" viewBox="0 0 256 256" width="288" height="288"><path fill="none" stroke="#ffffff" stroke-linecap="round" stroke-width="16" d="M 48.004588,16.00078 H 207.99487" class="colorStroke000 svgStroke"></path><path fill="none" stroke="#ffffff" stroke-linecap="round" stroke-linejoin="round" stroke-width="16" d="M 240.00422,-48.000717 A 31.999937,31.999937 0 0 1 208.00429,-16.00078" transform="scale(1 -1)" class="colorStroke000 svgStroke"></path><path fill="none" stroke="#ffffff" stroke-linecap="round" stroke-linejoin="round" stroke-width="16" d="M -16.004652,-48.000717 A 31.999937,31.999937 0 0 1 -48.004588,-16.00078" transform="scale(-1)" class="colorStroke000 svgStroke"></path><path fill="none" stroke="#ffffff" stroke-linecap="round" stroke-linejoin="round" stroke-width="16" d="m -16.004652,160.0005 a 31.999937,31.999937 0 0 1 -31.999936,31.99994" transform="scale(-1 1)" class="colorStroke000 svgStroke"></path><path fill="none" stroke="#ffffff" stroke-linecap="round" stroke-linejoin="round" stroke-width="16" d="M240.00422 160.0005a31.999937 31.999937 0 01-31.99993 31.99994M16.004649 48.00072V160.00051M240.00422 48.00072V160.00051M48.004588 192.00044h31.999937l47.999905 47.99991 47.99991-47.99991h31.99994" class="colorStroke000 svgStroke"></path></svg></g></svg>