<svg id="SvgjsSvg1001" width="288" height="288" xmlns="http://www.w3.org/2000/svg" version="1.1" xmlns:xlink="http://www.w3.org/1999/xlink" xmlns:svgjs="http://svgjs.com/svgjs"><defs id="SvgjsDefs1002"></defs><g id="SvgjsG1008"><svg xmlns="http://www.w3.org/2000/svg" version="1.0" viewBox="0 0 512 512" width="288" height="288"><g transform="matrix(.1 0 0 -.1 0 512)" fill="#ffffff" class="color000 svgShape"><path d="M2507 5110 c-51 -16 -2100 -1204 -2132 -1237 -18 -18 -37 -50 -43-72 -17 -55 -17 -2427 0 -2482 6 -22 25 -54 43 -72 39 -40 2091 -1226 2146
-1240 27 -6 55 -7 84 0 55 13 2108 1196 2150 1240 18 18 37 50 43 72 17 55 17
2427 0 2482 -6 22 -25 54 -43 72 -34 35 -2083 1222 -2137 1237 -39 12 -72 11
-111 0z m1036 -985 l867 -500 0 -1065 0 -1065 -918 -529 c-504 -291 -921 -529
-927 -529 -6 0 -423 238 -927 529 l-918 529 0 1065 0 1065 922 532 922 532 57
-32 c30 -18 446 -257 922 -532z" fill="#ffffff" class="color000 svgShape"></path><path d="M2846 3445c-21-7-52-26-68-42-20-18-153-274-394-756-347-693-364-730-364-783 0-92 51-163 139-193 42-14 65-14 114 0 84 23 84 24 473 801 347 694 364 731 364 784 0 92-51 163-139 193-44 14-77 13-125-4zM1524 3240c-25-13-145-126-316-298-286-287-298-303-298-382 0-80 12-95 298-383 176-176 292-285 317-297 48-23 122-26 168-6 39 17 92 71 106 109 16 41 13 112-5 155-9 23-86 109-207 229l-191 193 191 193c121 120 198 206 207 229 18 43 21 114 5 155-14 38-67 92-106 109-47 20-121 17-169-6zM3435 3246c-38-17-90-72-104-109-16-41-13-112 5-155 9-23 86-109 207-229l191-193-191-193c-121-120-198-206-207-229-18-43-21-114-5-155 14-38 67-92 106-109 46-20 120-17 168 6 25 12 141 121 317 297 286 288 298 303 298 383 0 79-12 95-298 383-177 178-291 284-317 297-48 23-125 26-170 6z" fill="#ffffff" class="color000 svgShape"></path></g></svg></g></svg>