<?xml version="1.0" encoding="UTF-8"?>
<!DOCTYPE svg PUBLIC "-//W3C//DTD SVG 1.1//EN" "http://www.w3.org/Graphics/SVG/1.1/DTD/svg11.dtd">
<svg xmlns="http://www.w3.org/2000/svg" version="1.1" width="128px" height="128px" style="shape-rendering:geometricPrecision; text-rendering:geometricPrecision; image-rendering:optimizeQuality; fill-rule:evenodd; clip-rule:evenodd" xmlns:xlink="http://www.w3.org/1999/xlink">
<g><path style="opacity:0.966" fill="#fefffe" d="M 7.5,0.5 C 44.8333,0.5 82.1667,0.5 119.5,0.5C 115.971,38.1485 112.471,75.8152 109,113.5C 93.9738,118.216 78.8071,122.549 63.5,126.5C 48.1929,122.549 33.0262,118.216 18,113.5C 14.5287,75.8152 11.0287,38.1485 7.5,0.5 Z M 29.5,22.5 C 52.1667,22.5 74.8333,22.5 97.5,22.5C 95.9071,46.1247 93.5738,69.6247 90.5,93C 81.5289,95.6015 72.5289,98.1015 63.5,100.5C 54.4711,98.1015 45.4711,95.6015 36.5,93C 35.1124,85.92 34.1124,78.7533 33.5,71.5C 37.8333,71.5 42.1667,71.5 46.5,71.5C 47.1621,75.4659 47.4955,79.4659 47.5,83.5C 52.9796,84.2148 58.3129,85.5481 63.5,87.5C 68.7686,85.8495 74.102,84.5162 79.5,83.5C 79.7799,77.2463 80.4465,71.0796 81.5,65C 70.505,64.5002 59.505,64.3335 48.5,64.5C 48.4599,59.8075 48.1266,55.1408 47.5,50.5C 59.1667,50.5 70.8333,50.5 82.5,50.5C 82.8333,45.8333 83.1667,41.1667 83.5,36.5C 65.8333,36.5 48.1667,36.5 30.5,36.5C 30.1667,31.8333 29.8333,27.1667 29.5,22.5 Z"/></g>
</svg>
