<?xml version="1.0" encoding="UTF-8"?>
<!DOCTYPE svg PUBLIC "-//W3C//DTD SVG 1.1//EN" "http://www.w3.org/Graphics/SVG/1.1/DTD/svg11.dtd">
<svg xmlns="http://www.w3.org/2000/svg" version="1.1" width="128px" height="128px" style="shape-rendering:geometricPrecision; text-rendering:geometricPrecision; image-rendering:optimizeQuality; fill-rule:evenodd; clip-rule:evenodd" xmlns:xlink="http://www.w3.org/1999/xlink">
<g><path style="opacity:0.966" fill="#fefffe" d="M 8.5,1.5 C 45.1667,1.5 81.8333,1.5 118.5,1.5C 115.665,38.8549 112.498,76.1882 109,113.5C 93.9738,118.216 78.8071,122.549 63.5,126.5C 48.1929,122.549 33.0262,118.216 18,113.5C 14.5019,76.1882 11.3353,38.8549 8.5,1.5 Z M 29.5,24.5 C 52.1667,24.5 74.8333,24.5 97.5,24.5C 96.8734,29.1408 96.5401,33.8075 96.5,38.5C 78.8333,38.5 61.1667,38.5 43.5,38.5C 44.1266,43.1408 44.4599,47.8075 44.5,52.5C 61.1667,52.5 77.8333,52.5 94.5,52.5C 93.9738,66.4578 92.6405,80.2911 90.5,94C 81.5443,96.6556 72.5443,99.1556 63.5,101.5C 54.2321,98.8497 44.8988,96.5164 35.5,94.5C 35.3401,87.5705 34.6734,80.7371 33.5,74C 37.8206,73.501 42.1539,73.3343 46.5,73.5C 46.845,77.4216 47.5116,81.2549 48.5,85C 54.0124,87.1313 59.6791,88.1313 65.5,88C 69.8826,86.9878 74.2159,85.8212 78.5,84.5C 80.0662,78.6063 80.7329,72.6063 80.5,66.5C 64.8333,66.5 49.1667,66.5 33.5,66.5C 32.1073,52.5135 30.7739,38.5135 29.5,24.5 Z"/></g>
</svg>
