<?xml version="1.0" encoding="UTF-8"?>
<!DOCTYPE svg PUBLIC "-//W3C//DTD SVG 1.1//EN" "http://www.w3.org/Graphics/SVG/1.1/DTD/svg11.dtd">
<svg xmlns="http://www.w3.org/2000/svg" version="1.1" width="128px" height="128px" style="shape-rendering:geometricPrecision; text-rendering:geometricPrecision; image-rendering:optimizeQuality; fill-rule:evenodd; clip-rule:evenodd" xmlns:xlink="http://www.w3.org/1999/xlink">
<g><path style="opacity:0.983" fill="#fefffe" d="M 1.5,0.5 C 43.1667,0.5 84.8333,0.5 126.5,0.5C 126.5,42.1667 126.5,83.8333 126.5,125.5C 84.8333,125.5 43.1667,125.5 1.5,125.5C 1.5,83.8333 1.5,42.1667 1.5,0.5 Z M 58.5,57.5 C 62.1667,57.5 65.8333,57.5 69.5,57.5C 69.9369,73.2243 69.4369,88.8909 68,104.5C 65.2175,111.477 60.0508,114.811 52.5,114.5C 45.0439,114.441 39.3772,111.274 35.5,105C 38.0779,102.793 40.9113,100.96 44,99.5C 46.8332,104.777 50.9998,106.277 56.5,104C 57.1258,103.25 57.6258,102.416 58,101.5C 58.4999,86.8371 58.6666,72.1705 58.5,57.5 Z M 91.5,57.5 C 100.387,55.4698 107.387,58.1365 112.5,65.5C 110.241,67.5448 107.741,69.2115 105,70.5C 101.985,66.8703 98.1515,65.7036 93.5,67C 89.9769,69.7936 89.6436,72.9602 92.5,76.5C 98.6266,79.397 104.627,82.5637 110.5,86C 117.942,93.74 118.275,101.74 111.5,110C 101.884,115.992 92.2168,115.992 82.5,110C 80.4429,108.281 78.7763,106.281 77.5,104C 81.5414,98.2 85.5414,97.8667 89.5,103C 95.177,106.657 100.344,106.157 105,101.5C 106.123,98.0437 105.29,95.2103 102.5,93C 97.3797,90.94 92.3797,88.6067 87.5,86C 80.0855,79.7052 78.5855,72.2052 83,63.5C 85.3218,60.6047 88.1552,58.6047 91.5,57.5 Z"/></g>
</svg>
