<?xml version="1.0" encoding="UTF-8"?>
<!DOCTYPE svg PUBLIC "-//W3C//DTD SVG 1.1//EN" "http://www.w3.org/Graphics/SVG/1.1/DTD/svg11.dtd">
<svg xmlns="http://www.w3.org/2000/svg" version="1.1" width="320px" height="320px" style="shape-rendering:geometricPrecision; text-rendering:geometricPrecision; image-rendering:optimizeQuality; fill-rule:evenodd; clip-rule:evenodd" xmlns:xlink="http://www.w3.org/1999/xlink">
<g><path style="opacity:1" fill="#fefffe" d="M 59.5,-0.5 C 126.167,-0.5 192.833,-0.5 259.5,-0.5C 259.5,6.16667 259.5,12.8333 259.5,19.5C 192.833,19.5 126.167,19.5 59.5,19.5C 59.5,12.8333 59.5,6.16667 59.5,-0.5 Z"/></g>
<g><path style="opacity:1" fill="#fefffe" d="M 59.5,19.5 C 59.5,26.1667 59.5,32.8333 59.5,39.5C 52.8333,39.5 46.1667,39.5 39.5,39.5C 39.5,32.8333 39.5,26.1667 39.5,19.5C 46.1667,19.5 52.8333,19.5 59.5,19.5 Z"/></g>
<g><path style="opacity:1" fill="#fefffe" d="M 259.5,19.5 C 266.167,19.5 272.833,19.5 279.5,19.5C 279.5,26.1667 279.5,32.8333 279.5,39.5C 279.5,32.8333 279.5,26.1667 279.5,19.5C 272.833,19.5 266.167,19.5 259.5,19.5 Z"/></g>
<g><path style="opacity:1" fill="#fefffe" d="M 39.5,39.5 C 39.5,99.5 39.5,159.5 39.5,219.5C 46.1667,219.5 52.8333,219.5 59.5,219.5C 59.5,226.167 59.5,232.833 59.5,239.5C 126.167,239.5 192.833,239.5 259.5,239.5C 259.5,232.833 259.5,226.167 259.5,219.5C 266.167,219.5 272.833,219.5 279.5,219.5C 279.5,159.5 279.5,99.5 279.5,39.5C 286.167,39.5 292.833,39.5 299.5,39.5C 299.5,112.833 299.5,186.167 299.5,259.5C 292.833,259.5 286.167,259.5 279.5,259.5C 279.5,266.167 279.5,272.833 279.5,279.5C 272.833,279.5 266.167,279.5 259.5,279.5C 259.5,286.167 259.5,292.833 259.5,299.5C 192.833,299.5 126.167,299.5 59.5,299.5C 59.5,292.833 59.5,286.167 59.5,279.5C 52.8333,279.5 46.1667,279.5 39.5,279.5C 39.5,272.833 39.5,266.167 39.5,259.5C 32.8333,259.5 26.1667,259.5 19.5,259.5C 19.5,186.167 19.5,112.833 19.5,39.5C 26.1667,39.5 32.8333,39.5 39.5,39.5 Z"/></g>
<g><path style="opacity:1" fill="#fefffe" d="M 119.5,99.5 C 106.167,99.5 92.8333,99.5 79.5,99.5C 79.5,92.8333 79.5,86.1667 79.5,79.5C 92.8333,79.5 106.167,79.5 119.5,79.5C 119.5,86.1667 119.5,92.8333 119.5,99.5 Z"/></g>
<g><path style="opacity:1" fill="#fefffe" d="M 239.5,99.5 C 226.167,99.5 212.833,99.5 199.5,99.5C 199.5,92.8333 199.5,86.1667 199.5,79.5C 212.833,79.5 226.167,79.5 239.5,79.5C 239.5,86.1667 239.5,92.8333 239.5,99.5 Z"/></g>
<g><path style="opacity:1" fill="#fefffe" d="M 79.5,99.5 C 79.5,106.167 79.5,112.833 79.5,119.5C 72.8333,119.5 66.1667,119.5 59.5,119.5C 59.5,112.833 59.5,106.167 59.5,99.5C 66.1667,99.5 72.8333,99.5 79.5,99.5 Z"/></g>
<g><path style="opacity:1" fill="#fefffe" d="M 119.5,99.5 C 126.167,99.5 132.833,99.5 139.5,99.5C 139.5,106.167 139.5,112.833 139.5,119.5C 132.833,119.5 126.167,119.5 119.5,119.5C 119.5,112.833 119.5,106.167 119.5,99.5 Z"/></g>
<g><path style="opacity:1" fill="#fefffe" d="M 199.5,99.5 C 199.5,106.167 199.5,112.833 199.5,119.5C 192.833,119.5 186.167,119.5 179.5,119.5C 179.5,112.833 179.5,106.167 179.5,99.5C 186.167,99.5 192.833,99.5 199.5,99.5 Z"/></g>
<g><path style="opacity:1" fill="#fefffe" d="M 239.5,99.5 C 246.167,99.5 252.833,99.5 259.5,99.5C 259.5,106.167 259.5,112.833 259.5,119.5C 252.833,119.5 246.167,119.5 239.5,119.5C 239.5,112.833 239.5,106.167 239.5,99.5 Z"/></g>
<g><path style="opacity:1" fill="#fefffe" d="M 99.5,159.5 C 106.167,159.5 112.833,159.5 119.5,159.5C 119.5,166.167 119.5,172.833 119.5,179.5C 146.167,179.5 172.833,179.5 199.5,179.5C 199.5,172.833 199.5,166.167 199.5,159.5C 206.167,159.5 212.833,159.5 219.5,159.5C 219.5,172.833 219.5,186.167 219.5,199.5C 212.833,199.5 206.167,199.5 199.5,199.5C 199.5,206.167 199.5,212.833 199.5,219.5C 172.833,219.5 146.167,219.5 119.5,219.5C 119.5,212.833 119.5,206.167 119.5,199.5C 112.833,199.5 106.167,199.5 99.5,199.5C 99.5,186.167 99.5,172.833 99.5,159.5 Z"/></g>
</svg>
