<?xml version="1.0" encoding="UTF-8"?>
<!DOCTYPE svg PUBLIC "-//W3C//DTD SVG 1.1//EN" "http://www.w3.org/Graphics/SVG/1.1/DTD/svg11.dtd">
<svg xmlns="http://www.w3.org/2000/svg" version="1.1" width="128px" height="128px" style="shape-rendering:geometricPrecision; text-rendering:geometricPrecision; image-rendering:optimizeQuality; fill-rule:evenodd; clip-rule:evenodd" xmlns:xlink="http://www.w3.org/1999/xlink">
<g><path style="opacity:0.914" fill="#fefffe" d="M 60.5,1.5 C 68.7656,1.54868 75.2656,4.88201 80,11.5C 81.6429,21.5693 83.6429,31.5693 86,41.5C 92.9413,50.3771 98.6079,60.0438 103,70.5C 104.67,76.678 104.836,82.8447 103.5,89C 104.943,95.7983 108.777,100.965 115,104.5C 115.92,107.308 115.087,109.475 112.5,111C 105.024,114.152 98.3576,118.486 92.5,124C 88.8333,124.667 85.1667,124.667 81.5,124C 80.7433,122.488 79.7433,121.154 78.5,120C 70.8887,118.522 63.222,118.188 55.5,119C 51.2892,121.369 46.9559,123.536 42.5,125.5C 32.2363,122.245 22.0697,118.912 12,115.5C 11.3333,109.5 11.3333,103.5 12,97.5C 21.5006,95.677 26.1673,90.0103 26,80.5C 28.8833,75.4008 31.2166,70.0675 33,64.5C 36.5816,56.9971 40.9149,49.9971 46,43.5C 45.8155,33.1728 45.8155,22.8394 46,12.5C 48.8214,6.02277 53.6547,2.3561 60.5,1.5 Z M 65.5,19.5 C 69.1816,18.7253 71.6816,20.0586 73,23.5C 73.6667,25.8333 73.6667,28.1667 73,30.5C 72.1739,32.4054 71.0072,32.7388 69.5,31.5C 72.0801,29.0444 72.0801,26.5444 69.5,24C 68.5,23.3333 67.5,23.3333 66.5,24C 63.6104,31.1553 62.4438,30.6553 63,22.5C 64.045,21.6266 64.8783,20.6266 65.5,19.5 Z M 49.5,28.5 C 48.2355,26.2279 48.4022,23.8945 50,21.5C 53.9419,20.1036 56.1086,21.6036 56.5,26C 56.1667,26.8333 55.8333,27.6667 55.5,28.5C 53.0825,22.0143 51.0825,22.0143 49.5,28.5 Z M 70.5,40.5 C 71.675,40.281 72.675,40.6143 73.5,41.5C 78.1587,51.6447 82.3254,61.978 86,72.5C 86.6667,77.1667 86.6667,81.8333 86,86.5C 84.5587,87.87 82.892,88.87 81,89.5C 80.6667,93.8333 80.3333,98.1667 80,102.5C 71.3217,112.047 61.1551,114.381 49.5,109.5C 48.5853,108.672 47.9186,107.672 47.5,106.5C 50.7291,105.125 51.8958,102.792 51,99.5C 45.6464,95.1442 40.6464,90.4775 36,85.5C 37.7206,72.0065 42.0539,59.3398 49,47.5C 48.4181,40.5585 50.2514,39.7251 54.5,45C 60.8784,47.3154 66.2117,45.8154 70.5,40.5 Z"/></g>
</svg>
