<?xml version="1.0" encoding="UTF-8"?>
<!DOCTYPE svg PUBLIC "-//W3C//DTD SVG 1.1//EN" "http://www.w3.org/Graphics/SVG/1.1/DTD/svg11.dtd">
<svg xmlns="http://www.w3.org/2000/svg" version="1.1" width="296px" height="296px" style="shape-rendering:geometricPrecision; text-rendering:geometricPrecision; image-rendering:optimizeQuality; fill-rule:evenodd; clip-rule:evenodd" xmlns:xlink="http://www.w3.org/1999/xlink">
<g><path style="opacity:0.974" fill="#fefffe" d="M 133.5,-0.5 C 140.833,-0.5 148.167,-0.5 155.5,-0.5C 191.457,2.20918 222.624,15.8758 249,40.5C 249.667,41.5 249.667,42.5 249,43.5C 234.325,61.0056 219.491,78.339 204.5,95.5C 183.574,79.5344 164.24,81.2011 146.5,100.5C 124.893,79.1625 103.393,79.4958 82,101.5C 66.7286,119.894 64.3952,139.894 75,161.5C 81.648,172.822 89.8147,182.989 99.5,192C 114.161,204.327 129.828,215.16 146.5,224.5C 173.711,210.465 196.544,191.132 215,166.5C 221.606,155.411 225.106,143.411 225.5,130.5C 226.815,150.053 220.982,167.387 208,182.5C 193.098,198.843 176.265,212.676 157.5,224C 153.916,226.211 150.083,227.711 146,228.5C 134.368,223.43 123.535,216.93 113.5,209C 112.5,208.333 111.5,208.333 110.5,209C 93.9373,227.224 77.7706,245.724 62,264.5C 25.7016,237.908 4.86823,202.241 -0.5,157.5C -0.5,149.833 -0.5,142.167 -0.5,134.5C 6.06863,78.1062 34.7353,37.2728 85.5,12C 101.056,5.61218 117.056,1.44552 133.5,-0.5 Z"/></g>
<g><path style="opacity:0.475" fill="#fefffe" d="M 221.5,116.5 C 223.273,117.314 223.773,118.648 223,120.5C 221.812,119.437 221.312,118.103 221.5,116.5 Z"/></g>
<g><path style="opacity:0.339" fill="#fefffe" d="M 225.5,130.5 C 224.387,129.054 224.22,127.387 225,125.5C 225.494,127.134 225.66,128.801 225.5,130.5 Z"/></g>
</svg>
