<?xml version="1.0" encoding="UTF-8"?>
<!DOCTYPE svg PUBLIC "-//W3C//DTD SVG 1.1//EN" "http://www.w3.org/Graphics/SVG/1.1/DTD/svg11.dtd">
<svg xmlns="http://www.w3.org/2000/svg" version="1.1" width="128px" height="128px" style="shape-rendering:geometricPrecision; text-rendering:geometricPrecision; image-rendering:optimizeQuality; fill-rule:evenodd; clip-rule:evenodd" xmlns:xlink="http://www.w3.org/1999/xlink">
<g><path style="opacity:0.699" fill="#fefffe" d="M 55.5,-0.5 C 57.5,-0.5 59.5,-0.5 61.5,-0.5C 61.0296,0.693482 60.0296,1.36015 58.5,1.5C 56.9704,1.36015 55.9704,0.693482 55.5,-0.5 Z"/></g>
<g><path style="opacity:0.696" fill="#fefffe" d="M 66.5,-0.5 C 68.5,-0.5 70.5,-0.5 72.5,-0.5C 72.0296,0.693482 71.0296,1.36015 69.5,1.5C 67.9704,1.36015 66.9704,0.693482 66.5,-0.5 Z"/></g>
<g><path style="opacity:0.916" fill="#fefffe" d="M 110.5,-0.5 C 111.833,-0.5 113.167,-0.5 114.5,-0.5C 121.06,1.05873 125.393,5.05873 127.5,11.5C 127.5,13.5 127.5,15.5 127.5,17.5C 121.633,30.506 112.8,32.8393 101,24.5C 94.6888,12.4679 97.8555,4.13453 110.5,-0.5 Z"/></g>
<g><path style="opacity:0.499" fill="#fefffe" d="M 47.5,0.5 C 48.675,0.28099 49.675,0.614324 50.5,1.5C 49.2318,3.04698 47.5652,4.04698 45.5,4.5C 44.6143,3.67504 44.281,2.67504 44.5,1.5C 45.791,1.73731 46.791,1.40397 47.5,0.5 Z"/></g>
<g><path style="opacity:0.417" fill="#fefffe" d="M 77.5,0.5 C 79.9363,0.748893 81.9363,1.74889 83.5,3.5C 81.1291,4.33677 78.7958,4.00344 76.5,2.5C 76.8627,1.81654 77.1961,1.14987 77.5,0.5 Z"/></g>
<g><path style="opacity:0.421" fill="#fefffe" d="M 38.5,3.5 C 39.4778,3.81103 40.1445,4.4777 40.5,5.5C 38.7597,7.21083 36.7597,8.04417 34.5,8C 34.0426,7.58605 33.7093,7.08605 33.5,6.5C 35.3596,5.6751 37.0262,4.6751 38.5,3.5 Z"/></g>
<g><path style="opacity:0.461" fill="#fefffe" d="M 87.5,4.5 C 90.9694,3.88722 92.9694,5.22055 93.5,8.5C 90.3918,8.62539 88.3918,7.29206 87.5,4.5 Z"/></g>
<g><path style="opacity:0.434" fill="#fefffe" d="M 28.5,8.5 C 30.2252,8.84254 30.7252,9.84254 30,11.5C 28.4878,12.2567 27.1545,13.2567 26,14.5C 25.3076,13.9747 24.8076,13.3081 24.5,12.5C 25.8665,11.16 27.1999,9.82669 28.5,8.5 Z"/></g>
<g><path style="opacity:0.967" fill="#fefffe" d="M 53.5,14.5 C 83.7756,11.7 103.276,24.7 112,53.5C 115.554,78.8958 106.054,97.3958 83.5,109C 59.4643,117.542 39.2977,112.042 23,92.5C 13.6726,77.0093 12.006,60.676 18,43.5C 25.5186,28.4751 37.3519,18.8085 53.5,14.5 Z M 80.5,29.5 C 93.8098,29.9673 98.9764,36.6339 96,49.5C 90.5798,56.9257 83.7465,58.4257 75.5,54C 69.9231,48.1463 69.0898,41.6463 73,34.5C 75.4256,32.5476 77.9256,30.881 80.5,29.5 Z"/></g>
<g><path style="opacity:0.431" fill="#fefffe" d="M 19.5,15.5 C 20.7562,15.4614 21.7562,15.9614 22.5,17C 16.6361,23.1673 15.6361,22.6673 19.5,15.5 Z"/></g>
<g><path style="opacity:0.472" fill="#fefffe" d="M 12.5,23.5 C 13.4778,23.811 14.1445,24.4777 14.5,25.5C 13.561,27.0534 12.3943,28.3867 11,29.5C 10.5,29.1667 10,28.8333 9.5,28.5C 10.2599,26.6396 11.2599,24.973 12.5,23.5 Z"/></g>
<g><path style="opacity:0.46" fill="#fefffe" d="M 5.5,33.5 C 6.5,33.5 7.5,33.5 8.5,33.5C 8.55309,36.0606 7.55309,38.0606 5.5,39.5C 4.48083,37.5405 4.48083,35.5405 5.5,33.5 Z"/></g>
<g><path style="opacity:0.393" fill="#fefffe" d="M 119.5,33.5 C 121.363,34.9672 122.696,36.9672 123.5,39.5C 123,39.8333 122.5,40.1667 122,40.5C 119.384,38.6375 118.551,36.3041 119.5,33.5 Z"/></g>
<g><path style="opacity:0.459" fill="#fefffe" d="M 1.5,43.5 C 2.5,43.5 3.5,43.5 4.5,43.5C 4.16667,45.5 3.83333,47.5 3.5,49.5C 2.32496,49.719 1.32496,49.3857 0.5,48.5C 1.30937,46.9291 1.64271,45.2624 1.5,43.5 Z"/></g>
<g><path style="opacity:0.457" fill="#fefffe" d="M 122.5,44.5 C 123.5,44.5 124.5,44.5 125.5,44.5C 125.833,46.5 126.167,48.5 126.5,50.5C 125.5,50.5 124.5,50.5 123.5,50.5C 123.483,48.4352 123.15,46.4352 122.5,44.5 Z"/></g>
<g><path style="opacity:0.696" fill="#fefffe" d="M -0.5,54.5 C 0.693482,54.9704 1.36015,55.9704 1.5,57.5C 1.36015,59.0296 0.693482,60.0296 -0.5,60.5C -0.5,58.5 -0.5,56.5 -0.5,54.5 Z"/></g>
<g><path style="opacity:0.708" fill="#fefffe" d="M 127.5,55.5 C 127.5,57.5 127.5,59.5 127.5,61.5C 126.307,61.0296 125.64,60.0296 125.5,58.5C 125.64,56.9704 126.307,55.9704 127.5,55.5 Z"/></g>
<g><path style="opacity:0.69" fill="#fefffe" d="M -0.5,65.5 C 0.693482,65.9704 1.36015,66.9704 1.5,68.5C 1.36015,70.0296 0.693482,71.0296 -0.5,71.5C -0.5,69.5 -0.5,67.5 -0.5,65.5 Z"/></g>
<g><path style="opacity:0.61" fill="#fefffe" d="M 127.5,66.5 C 127.5,68.5 127.5,70.5 127.5,72.5C 126.325,72.719 125.325,72.3857 124.5,71.5C 124.784,69.2406 125.784,67.5739 127.5,66.5 Z"/></g>
<g><path style="opacity:0.486" fill="#fefffe" d="M 0.5,76.5 C 1.4959,76.4142 2.32924,76.7476 3,77.5C 3.40174,78.8721 3.90174,80.2054 4.5,81.5C 3.67504,82.3857 2.67504,82.719 1.5,82.5C 1.16667,80.5 0.833333,78.5 0.5,76.5 Z"/></g>
<g><path style="opacity:0.486" fill="#fefffe" d="M 123.5,77.5 C 124.675,77.281 125.675,77.6143 126.5,78.5C 125.691,80.0709 125.357,81.7376 125.5,83.5C 124.5,83.5 123.5,83.5 122.5,83.5C 122.833,81.5 123.167,79.5 123.5,77.5 Z"/></g>
<g><path style="opacity:0.383" fill="#fefffe" d="M 3.5,86.5 C 6.24649,86.9276 7.91315,88.5943 8.5,91.5C 7.59299,93.6499 6.59299,93.8165 5.5,92C 4.68048,90.1997 4.01381,88.3664 3.5,86.5 Z"/></g>
<g><path style="opacity:0.462" fill="#fefffe" d="M 120.5,87.5 C 122.923,89.6576 122.756,91.991 120,94.5C 119.308,93.9747 118.808,93.3081 118.5,92.5C 119.456,90.9246 120.123,89.258 120.5,87.5 Z"/></g>
<g><path style="opacity:0.441" fill="#fefffe" d="M 8.5,96.5 C 12.3591,96.8948 13.6925,98.8948 12.5,102.5C 10.6631,100.824 9.3298,98.8236 8.5,96.5 Z"/></g>
<g><path style="opacity:0.473" fill="#fefffe" d="M 114.5,97.5 C 115.675,97.281 116.675,97.6143 117.5,98.5C 116.826,100.517 115.659,102.183 114,103.5C 113.308,102.975 112.808,102.308 112.5,101.5C 113.63,100.378 114.297,99.0443 114.5,97.5 Z"/></g>
<g><path style="opacity:0.443" fill="#fefffe" d="M 16.5,104.5 C 18.4788,105.812 20.1455,107.479 21.5,109.5C 18.7582,110.5 16.7582,109.5 15.5,106.5C 15.8627,105.817 16.1961,105.15 16.5,104.5 Z"/></g>
<g><path style="opacity:0.431" fill="#fefffe" d="M 108.5,105.5 C 109.497,105.47 110.164,105.97 110.5,107C 109.379,110.555 107.379,111.555 104.5,110C 106.041,108.629 107.375,107.129 108.5,105.5 Z"/></g>
<g><path style="opacity:0.485" fill="#fefffe" d="M 24.5,112.5 C 27.755,113.028 29.0883,114.695 28.5,117.5C 25.3534,116.745 24.0201,115.079 24.5,112.5 Z"/></g>
<g><path style="opacity:0.45" fill="#fefffe" d="M 99.5,113.5 C 100.675,113.281 101.675,113.614 102.5,114.5C 101.055,116.063 99.3885,117.396 97.5,118.5C 96.4173,117.635 96.2506,116.635 97,115.5C 97.9947,114.934 98.828,114.267 99.5,113.5 Z"/></g>
<g><path style="opacity:0.478" fill="#fefffe" d="M 33.5,118.5 C 35.9363,118.749 37.9363,119.749 39.5,121.5C 36.1186,123.143 34.1186,122.143 33.5,118.5 Z"/></g>
<g><path style="opacity:0.409" fill="#fefffe" d="M 90.5,118.5 C 91.9953,118.415 92.9953,119.081 93.5,120.5C 91.5101,121.498 89.5101,122.498 87.5,123.5C 87.1667,123 86.8333,122.5 86.5,122C 87.6856,120.588 89.019,119.421 90.5,118.5 Z"/></g>
<g><path style="opacity:0.473" fill="#fefffe" d="M 43.5,122.5 C 45.5,122.833 47.5,123.167 49.5,123.5C 49.719,124.675 49.3857,125.675 48.5,126.5C 46.9291,125.691 45.2624,125.357 43.5,125.5C 43.5,124.5 43.5,123.5 43.5,122.5 Z"/></g>
<g><path style="opacity:0.509" fill="#fefffe" d="M 80.5,122.5 C 82.0481,122.821 82.7148,123.821 82.5,125.5C 80.4012,126.231 78.4012,126.231 76.5,125.5C 77.6243,124.141 78.9577,123.141 80.5,122.5 Z"/></g>
<g><path style="opacity:0.692" fill="#fefffe" d="M 60.5,127.5 C 58.5,127.5 56.5,127.5 54.5,127.5C 54.9704,126.307 55.9704,125.64 57.5,125.5C 59.0296,125.64 60.0296,126.307 60.5,127.5 Z"/></g>
<g><path style="opacity:0.687" fill="#fefffe" d="M 71.5,127.5 C 69.5,127.5 67.5,127.5 65.5,127.5C 65.9704,126.307 66.9704,125.64 68.5,125.5C 70.0296,125.64 71.0296,126.307 71.5,127.5 Z"/></g>
</svg>
