<?xml version="1.0" encoding="UTF-8"?>
<!DOCTYPE svg PUBLIC "-//W3C//DTD SVG 1.1//EN" "http://www.w3.org/Graphics/SVG/1.1/DTD/svg11.dtd">
<svg xmlns="http://www.w3.org/2000/svg" version="1.1" width="128px" height="128px" style="shape-rendering:geometricPrecision; text-rendering:geometricPrecision; image-rendering:optimizeQuality; fill-rule:evenodd; clip-rule:evenodd" xmlns:xlink="http://www.w3.org/1999/xlink">
<g><path style="opacity:0.792" fill="#fefffe" d="M 51.5,-0.5 C 59.5,-0.5 67.5,-0.5 75.5,-0.5C 103.167,6.5 120.5,23.8333 127.5,51.5C 127.5,59.5 127.5,67.5 127.5,75.5C 120.385,103.615 102.718,120.949 74.5,127.5C 67.1667,127.5 59.8333,127.5 52.5,127.5C 24.2818,120.949 6.61511,103.615 -0.5,75.5C -0.5,67.5 -0.5,59.5 -0.5,51.5C 6.5,23.8333 23.8333,6.5 51.5,-0.5 Z M 60.5,3.5 C 98.1085,6.12655 119.108,26.1266 123.5,63.5C 122.561,84.3854 113.561,100.719 96.5,112.5C 80.4706,88.9695 64.6373,65.3028 49,41.5C 46.2809,40.5562 43.4475,40.2229 40.5,40.5C 40.5,57.5 40.5,74.5 40.5,91.5C 43.1667,91.5 45.8333,91.5 48.5,91.5C 48.3335,80.1618 48.5001,68.8284 49,57.5C 63.0443,77.0885 77.211,96.5885 91.5,116C 66.06,127.655 42.7266,124.321 21.5,106C -2.25582,77.9684 -2.42248,49.8017 21,21.5C 32.1937,10.9835 45.3603,4.98352 60.5,3.5 Z"/></g>
<g><path style="opacity:0.792" fill="#fefffe" d="M 77.5,40.5 C 80.5,40.5 83.5,40.5 86.5,40.5C 86.8326,55.1818 86.4993,69.8485 85.5,84.5C 82.8045,80.9704 80.3045,77.3037 78,73.5C 77.5002,62.505 77.3335,51.505 77.5,40.5 Z"/></g>
</svg>
