<?xml version="1.0" encoding="UTF-8"?>
<!DOCTYPE svg PUBLIC "-//W3C//DTD SVG 1.1//EN" "http://www.w3.org/Graphics/SVG/1.1/DTD/svg11.dtd">
<svg xmlns="http://www.w3.org/2000/svg" version="1.1" width="128px" height="128px" style="shape-rendering:geometricPrecision; text-rendering:geometricPrecision; image-rendering:optimizeQuality; fill-rule:evenodd; clip-rule:evenodd" xmlns:xlink="http://www.w3.org/1999/xlink">
<g><path style="opacity:0.842" fill="#fefffe" d="M 33.5,7.5 C 38.2675,7.19076 42.9342,7.69076 47.5,9C 53.3627,12.0979 58.696,15.9312 63.5,20.5C 68.9065,14.9273 75.2398,10.7606 82.5,8C 93.0358,5.3416 99.5358,9.17493 102,19.5C 102.805,27.2633 102.305,34.93 100.5,42.5C 109.862,44.0971 117.695,48.4304 124,55.5C 128.509,64.2034 126.675,71.37 118.5,77C 113.071,80.8812 107.071,83.3812 100.5,84.5C 102.82,93.4641 102.987,102.464 101,111.5C 97.0613,119.042 90.8947,121.542 82.5,119C 75.2398,116.239 68.9065,112.073 63.5,106.5C 58.0935,112.073 51.7602,116.239 44.5,119C 33.9642,121.658 27.4642,117.825 25,107.5C 24.1953,99.7367 24.6953,92.07 26.5,84.5C 17.138,82.9029 9.30467,78.5696 3,71.5C -1.50878,62.7966 0.324555,55.63 8.5,50C 13.9285,46.1188 19.9285,43.6188 26.5,42.5C 24.6953,34.93 24.1953,27.2633 25,19.5C 26.1486,14.1669 28.9819,10.1669 33.5,7.5 Z M 37.5,13.5 C 46.0207,15.0944 53.0207,19.261 58.5,26C 55.1667,30 51.8333,34 48.5,38C 43.1368,38.7273 37.8034,39.5607 32.5,40.5C 31.5432,33.5226 31.3766,26.5226 32,19.5C 33.0209,16.6499 34.8542,14.6499 37.5,13.5 Z M 86.5,13.5 C 90.6584,13.6596 93.4918,15.6596 95,19.5C 95.6234,26.5226 95.4568,33.5226 94.5,40.5C 89.1966,39.5607 83.8632,38.7273 78.5,38C 75.1667,34 71.8333,30 68.5,26C 73.5979,20.3807 79.5979,16.214 86.5,13.5 Z M 62.5,31.5 C 65.2596,32.423 67.2596,34.2563 68.5,37C 65.1667,37.6667 61.8333,37.6667 58.5,37C 59.6647,35.0083 60.998,33.175 62.5,31.5 Z M 61.5,43.5 C 65.819,44.0355 70.1523,44.5355 74.5,45C 78.5444,50.9189 82.2111,57.0855 85.5,63.5C 82.2111,69.9145 78.5444,76.0811 74.5,82C 70.8046,82.3179 67.1379,82.8179 63.5,83.5C 59.8621,82.8179 56.1954,82.3179 52.5,82C 48.4556,76.0811 44.7889,69.9145 41.5,63.5C 44.7476,57.3359 48.2476,51.3359 52,45.5C 55.2704,44.868 58.4371,44.2014 61.5,43.5 Z M 39.5,45.5 C 40.8734,45.3433 42.2068,45.51 43.5,46C 41.2879,48.9212 39.4545,52.0879 38,55.5C 36.9625,52.5945 35.7958,49.7612 34.5,47C 36.3817,46.8019 38.0484,46.3019 39.5,45.5 Z M 83.5,46.5 C 83.9169,45.8761 84.5836,45.5427 85.5,45.5C 87.8193,46.0639 90.1526,46.5639 92.5,47C 91.2042,49.7612 90.0375,52.5945 89,55.5C 87.6429,52.1019 85.8096,49.1019 83.5,46.5 Z M 27.5,48.5 C 29.8661,53.2464 31.8661,58.2464 33.5,63.5C 31.7667,68.5329 29.9334,73.5329 28,78.5C 0.844284,68.6297 0.677618,58.6297 27.5,48.5 Z M 98.5,48.5 C 126.278,58.1486 126.445,68.1486 99,78.5C 97.0666,73.5329 95.2333,68.5329 93.5,63.5C 95.3741,58.5442 97.0408,53.5442 98.5,48.5 Z M 37.5,71.5 C 39.6369,74.4931 41.6369,77.6598 43.5,81C 40.4853,81.2009 37.4853,80.8676 34.5,80C 35.9292,77.3103 36.9292,74.4769 37.5,71.5 Z M 88.5,71.5 C 89.9299,74.1974 91.2632,77.0308 92.5,80C 89.5147,80.8676 86.5147,81.2009 83.5,81C 85.8293,78.1745 87.4959,75.0078 88.5,71.5 Z M 32.5,86.5 C 37.8034,87.4393 43.1368,88.2727 48.5,89C 51.8333,93 55.1667,97 58.5,101C 53.3109,107.185 46.8109,111.352 39,113.5C 35.4456,112.894 33.1123,110.894 32,107.5C 31.3766,100.477 31.5432,93.4774 32.5,86.5 Z M 91.5,86.5 C 92.5,86.5 93.5,86.5 94.5,86.5C 95.4568,93.4774 95.6234,100.477 95,107.5C 93.8877,110.894 91.5544,112.894 88,113.5C 80.1891,111.352 73.6891,107.185 68.5,101C 71.8333,97 75.1667,93 78.5,89C 83.0472,88.5712 87.3805,87.7379 91.5,86.5 Z M 58.5,90.5 C 61.6399,89.3592 64.9733,89.1925 68.5,90C 67.3589,92.3079 65.6922,94.1413 63.5,95.5C 61.4514,94.1182 59.7847,92.4516 58.5,90.5 Z"/></g>
<g><path style="opacity:0.898" fill="#fefffe" d="M 60.5,51.5 C 72.5248,51.8887 77.0248,57.8887 74,69.5C 69.7135,75.26 64.2135,76.76 57.5,74C 51.74,69.7135 50.24,64.2135 53,57.5C 55.109,54.8782 57.609,52.8782 60.5,51.5 Z"/></g>
</svg>
