<?xml version="1.0" encoding="UTF-8"?>
<!DOCTYPE svg PUBLIC "-//W3C//DTD SVG 1.1//EN" "http://www.w3.org/Graphics/SVG/1.1/DTD/svg11.dtd">
<svg xmlns="http://www.w3.org/2000/svg" version="1.1" width="128px" height="128px" style="shape-rendering:geometricPrecision; text-rendering:geometricPrecision; image-rendering:optimizeQuality; fill-rule:evenodd; clip-rule:evenodd" xmlns:xlink="http://www.w3.org/1999/xlink">
<g><path style="opacity:0.833" fill="#fefffe" d="M 47.5,16.5 C 56.0159,15.8851 64.3492,16.7184 72.5,19C 77.2207,22.0571 79.8874,26.3905 80.5,32C 78.2594,44.9122 70.9261,53.5788 58.5,58C 50.1145,61.1434 41.7812,61.1434 33.5,58C 32.3333,56.8333 31.1667,55.6667 30,54.5C 29.2195,53.0563 29.3861,51.723 30.5,50.5C 36.1283,55.322 42.4617,56.4887 49.5,54C 61.0457,51.1161 68.7123,44.1161 72.5,33C 71.2246,28.0006 67.8913,25.3339 62.5,25C 42.4375,25.449 25.9375,33.2823 13,48.5C 9.8692,53.1991 9.8692,57.8658 13,62.5C 18.3678,68.092 24.2011,73.092 30.5,77.5C 36.2752,74.9594 41.2752,71.4594 45.5,67C 48.0546,65.5555 50.7213,64.3888 53.5,63.5C 57.1656,64.8167 58.8323,67.4834 58.5,71.5C 60.3464,71.2222 61.6798,71.8888 62.5,73.5C 60.8567,77.7286 60.0234,82.0619 60,86.5C 63.6667,77.8333 67.3333,69.1667 71,60.5C 73.7191,59.5562 76.5525,59.2229 79.5,59.5C 79.1312,62.3189 78.7978,65.1523 78.5,68C 78.4229,70.0507 78.9229,71.884 80,73.5C 83.4698,68.2264 86.1364,62.5598 88,56.5C 90.7191,55.5562 93.5525,55.2229 96.5,55.5C 96.3797,58.4802 95.713,61.3135 94.5,64C 95.0508,67.089 96.2174,69.9223 98,72.5C 105.54,69.7398 113.04,69.9065 120.5,73C 126.473,77.286 127.973,82.786 125,89.5C 123.192,91.8432 121.026,92.5099 118.5,91.5C 124.159,85.936 123.492,81.1027 116.5,77C 110.672,74.8655 105.005,75.0322 99.5,77.5C 101.089,82.84 99.4223,87.0067 94.5,90C 85.615,93.9178 82.7816,91.4178 86,82.5C 87.4578,80.04 89.2911,77.8734 91.5,76C 90.5984,73.7984 89.5984,71.6317 88.5,69.5C 86.8619,72.3041 85.0285,74.9708 83,77.5C 85.4162,90.5882 79.9162,96.5882 66.5,95.5C 67.9688,89.8336 70.9688,85.0003 75.5,81C 73.9471,78.3451 72.7804,75.5117 72,72.5C 68.6564,81.3581 64.1564,89.5247 58.5,97C 53.2296,98.2465 51.0629,96.0798 52,90.5C 51.1511,93.561 49.6511,96.2277 47.5,98.5C 41.9803,100.508 38.8137,98.5077 38,92.5C 37.6115,87.8976 37.4448,83.5643 37.5,79.5C 36.2519,80.0402 35.0852,80.7069 34,81.5C 36.989,101.504 28.489,111.004 8.5,110C 3.76841,104.965 3.26841,99.4649 7,93.5C 11.9981,88.1693 17.8314,84.0026 24.5,81C 17.0885,76.259 10.2551,70.759 4,64.5C -0.665608,57.0821 -0.332275,49.7488 5,42.5C 16.7858,29.861 30.9525,21.1943 47.5,16.5 Z M 52.5,69.5 C 52.0533,76.842 49.72,83.842 45.5,90.5C 43.6577,82.0265 45.9911,75.0265 52.5,69.5 Z M 92.5,81.5 C 93.2121,83.7942 92.3787,85.7942 90,87.5C 89.9717,85.2134 90.805,83.2134 92.5,81.5 Z M 26.5,85.5 C 27.5251,86.3739 28.1918,87.5405 28.5,89C 27.8766,94.5782 25.21,98.9115 20.5,102C 17.2764,104.346 14.6097,104.013 12.5,101C 13.0943,98.2098 14.2609,95.7098 16,93.5C 19.4004,90.5862 22.9004,87.9195 26.5,85.5 Z"/></g>
</svg>
