<?xml version="1.0" encoding="UTF-8"?>
<!DOCTYPE svg PUBLIC "-//W3C//DTD SVG 1.1//EN" "http://www.w3.org/Graphics/SVG/1.1/DTD/svg11.dtd">
<svg xmlns="http://www.w3.org/2000/svg" version="1.1" width="300px" height="300px" style="shape-rendering:geometricPrecision; text-rendering:geometricPrecision; image-rendering:optimizeQuality; fill-rule:evenodd; clip-rule:evenodd" xmlns:xlink="http://www.w3.org/1999/xlink">
<g><path style="opacity:1" fill="#fefffe" d="M 223.5,41.5 C 236.167,41.5 248.833,41.5 261.5,41.5C 261.5,55.1667 261.5,68.8333 261.5,82.5C 256.489,82.3341 251.489,82.5007 246.5,83C 246,83.5 245.5,84 245,84.5C 237.849,108.098 230.849,131.765 224,155.5C 220.204,166.43 214.371,176.097 206.5,184.5C 207.687,184.554 209.02,184.887 210.5,185.5C 201.463,198.044 191.13,209.544 179.5,220C 173.378,222.325 167.044,223.825 160.5,224.5C 157.565,224.104 154.898,223.104 152.5,221.5C 151.313,216.863 152.146,212.53 155,208.5C 171.634,194.353 188.634,180.687 206,167.5C 209.198,158.77 213.198,150.437 218,142.5C 224.183,122.601 229.35,102.434 233.5,82C 230.984,79.1513 228.151,76.6513 225,74.5C 220.871,68.801 219.538,62.4677 221,55.5C 221.516,50.7569 222.349,46.0903 223.5,41.5 Z"/></g>
<g><path style="opacity:1" fill="#fefffe" d="M 146.5,111.5 C 153.109,113.648 154.276,117.648 150,123.5C 137.554,138.612 123.721,152.446 108.5,165C 102.569,166.471 96.5692,166.804 90.5,166C 89.0692,165.535 87.9025,164.701 87,163.5C 86.0715,159.756 86.5715,156.256 88.5,153C 101.167,143 113.833,133 126.5,123C 132.815,118.349 139.482,114.516 146.5,111.5 Z"/></g>
<g><path style="opacity:1" fill="#fefffe" d="M 192.5,124.5 C 197.813,124.644 199.979,127.31 199,132.5C 194.44,140.393 189.107,147.727 183,154.5C 174.833,162.667 166.667,170.833 158.5,179C 150.881,182.657 142.881,183.991 134.5,183C 131.75,181.915 130.083,179.915 129.5,177C 130.292,172.452 131.959,168.285 134.5,164.5C 148.872,155.297 162.539,145.13 175.5,134C 180.938,130.284 186.605,127.118 192.5,124.5 Z"/></g>
<g><path style="opacity:1" fill="#fefffe" d="M 141.5,147.5 C 142.649,147.791 143.316,148.624 143.5,150C 143.327,152.021 142.66,153.854 141.5,155.5C 108.015,182.075 74.3479,208.408 40.5,234.5C 39.3339,220.846 39.1673,207.179 40,193.5C 54.4078,181.381 68.9078,169.381 83.5,157.5C 84.4516,165.116 88.7849,168.782 96.5,168.5C 100.456,168.313 104.289,167.646 108,166.5C 112.38,167.431 116.547,166.597 120.5,164C 127.932,158.963 134.932,153.463 141.5,147.5 Z"/></g>
<g><path style="opacity:1" fill="#fefffe" d="M 184.5,161.5 C 185.822,161.33 186.989,161.663 188,162.5C 189.041,167.44 188.374,172.106 186,176.5C 178.167,184.333 170.333,192.167 162.5,200C 135.167,221.333 107.833,242.667 80.5,264C 66.8374,264.5 53.1707,264.667 39.5,264.5C 39.1956,255.779 39.5289,247.112 40.5,238.5C 70.1438,215.357 99.6438,192.024 129,168.5C 125.487,181.99 130.654,187.49 144.5,185C 161.09,182.544 174.423,174.711 184.5,161.5 Z"/></g>
<g><path style="opacity:1" fill="#fefffe" d="M 150.5,212.5 C 147.935,221.279 151.268,225.946 160.5,226.5C 178.725,224.804 193.891,217.138 206,203.5C 207.927,214.791 205.594,225.125 199,234.5C 191.21,244.625 183.044,254.458 174.5,264C 144.5,264.667 114.5,264.667 84.5,264C 106.394,246.595 128.394,229.428 150.5,212.5 Z"/></g>
<g><path style="opacity:0.227" fill="#5e17eb" d="M 150.5,211.5 C 151.833,212.167 151.833,212.167 150.5,211.5 Z"/></g>
</svg>
