<?xml version="1.0" encoding="UTF-8"?>
<!DOCTYPE svg PUBLIC "-//W3C//DTD SVG 1.1//EN" "http://www.w3.org/Graphics/SVG/1.1/DTD/svg11.dtd">
<svg xmlns="http://www.w3.org/2000/svg" version="1.1" width="128px" height="128px" style="shape-rendering:geometricPrecision; text-rendering:geometricPrecision; image-rendering:optimizeQuality; fill-rule:evenodd; clip-rule:evenodd" xmlns:xlink="http://www.w3.org/1999/xlink">
<g><path style="opacity:0.976" fill="#fefffe" d="M 1.5,0.5 C 43.1667,0.5 84.8333,0.5 126.5,0.5C 126.5,42.5 126.5,84.5 126.5,126.5C 84.8333,126.5 43.1667,126.5 1.5,126.5C 1.5,84.5 1.5,42.5 1.5,0.5 Z M 44.5,58.5 C 53.8333,58.5 63.1667,58.5 72.5,58.5C 72.5,61.8333 72.5,65.1667 72.5,68.5C 67.1667,68.5 61.8333,68.5 56.5,68.5C 56.5,83.8333 56.5,99.1667 56.5,114.5C 52.8333,114.5 49.1667,114.5 45.5,114.5C 45.5,99.1667 45.5,83.8333 45.5,68.5C 40.1667,68.5 34.8333,68.5 29.5,68.5C 29.5,65.5 29.5,62.5 29.5,59.5C 34.6946,59.8205 39.6946,59.4872 44.5,58.5 Z M 91.5,58.5 C 98.4905,57.3531 104.657,59.0198 110,63.5C 110.982,64.7589 111.315,66.0922 111,67.5C 107.406,71.9602 103.906,72.1269 100.5,68C 95.2447,66.1925 91.9114,67.8591 90.5,73C 90.99,75.5028 92.3234,77.5028 94.5,79C 101.366,81.3473 107.532,84.8473 113,89.5C 119.462,105.089 114.128,113.755 97,115.5C 88.415,115.297 81.915,111.63 77.5,104.5C 79.7049,102.474 82.2049,100.808 85,99.5C 89.1756,105.112 94.6756,106.945 101.5,105C 105.809,102.427 106.476,99.0937 103.5,95C 98.1667,92.3333 92.8333,89.6667 87.5,87C 80.0855,80.7052 78.5855,73.2052 83,64.5C 85.6713,62.0976 88.5046,60.0976 91.5,58.5 Z"/></g>
</svg>
