<?xml version="1.0" encoding="UTF-8"?>
<!DOCTYPE svg PUBLIC "-//W3C//DTD SVG 1.1//EN" "http://www.w3.org/Graphics/SVG/1.1/DTD/svg11.dtd">
<svg xmlns="http://www.w3.org/2000/svg" version="1.1" width="128px" height="128px" style="shape-rendering:geometricPrecision; text-rendering:geometricPrecision; image-rendering:optimizeQuality; fill-rule:evenodd; clip-rule:evenodd" xmlns:xlink="http://www.w3.org/1999/xlink">
<g><path style="opacity:0.957" fill="#fefffe" d="M 89.5,1.5 C 92.1873,1.33591 94.854,1.50258 97.5,2C 107.109,6.72091 116.609,11.5542 126,16.5C 126.667,47.1667 126.667,77.8333 126,108.5C 115.682,115.077 104.848,120.743 93.5,125.5C 89.7865,123.96 86.4532,121.793 83.5,119C 69.0232,105.267 54.3565,91.7672 39.5,78.5C 33.0245,83.1416 26.6911,87.9749 20.5,93C 18.8657,94.3083 17.0324,95.1416 15,95.5C 11.599,93.7811 8.43238,91.6145 5.5,89C 3.4164,87.4993 2.08307,85.4993 1.5,83C 8.13239,76.0364 15.1324,69.3697 22.5,63C 15.6667,56.8333 8.83333,50.6667 2,44.5C 1.33333,43.1667 1.33333,41.8333 2,40.5C 5.20121,36.9636 8.70121,33.7969 12.5,31C 14.1667,30.3333 15.8333,30.3333 17.5,31C 24.937,36.1366 32.1036,41.6366 39,47.5C 56.3283,32.6699 73.1616,17.3366 89.5,1.5 Z M 93.5,36.5 C 94.8271,53.6713 94.8271,71.0046 93.5,88.5C 82.0252,80.1924 70.6919,71.6924 59.5,63C 71.0834,54.3884 82.4168,45.5551 93.5,36.5 Z"/></g>
</svg>
